<?xml version="1.0" encoding="UTF-8"?>
<svg id="Calque_1" xmlns="http://www.w3.org/2000/svg" xmlns:xlink="http://www.w3.org/1999/xlink" viewBox="0 0 585.66 727.57">
  <defs>
    <style>
      .cls-1, .cls-2 {
        fill: none;
      }

      .cls-3 {
        clip-path: url(#clippath);
      }

      .cls-2 {
        stroke: #1d1d1b;
        stroke-miterlimit: 10;
      }
    </style>
    <clipPath id="clippath">
      <rect class="cls-1" x="142.25" y="214.06" width="300" height="300"/>
    </clipPath>
  </defs>
  <g class="cls-3">
    <g>
      <line class="cls-2" x1="4.14" y1="316.06" x2="312.71" y2="7.49"/>
      <line class="cls-2" x1=".35" y1="308.92" x2="308.92" y2=".35"/>
      <line class="cls-2" x1="7.93" y1="323.19" x2="316.5" y2="14.62"/>
      <line class="cls-2" x1="13.35" y1="328.61" x2="321.92" y2="20.04"/>
      <line class="cls-2" x1="17.14" y1="335.74" x2="325.71" y2="27.17"/>
      <line class="cls-2" x1="20.75" y1="342.69" x2="329.32" y2="34.12"/>
      <line class="cls-2" x1="24.54" y1="349.82" x2="333.11" y2="41.25"/>
      <line class="cls-2" x1="29.95" y1="355.24" x2="338.53" y2="46.67"/>
      <line class="cls-2" x1="33.75" y1="362.37" x2="342.32" y2="53.8"/>
      <line class="cls-2" x1="39.66" y1="367.51" x2="348.23" y2="58.94"/>
      <line class="cls-2" x1="43.45" y1="374.64" x2="352.02" y2="66.07"/>
      <line class="cls-2" x1="48.87" y1="380.06" x2="357.44" y2="71.49"/>
      <line class="cls-2" x1="52.66" y1="387.19" x2="361.23" y2="78.62"/>
      <line class="cls-2" x1="56.26" y1="394.14" x2="364.83" y2="85.57"/>
      <line class="cls-2" x1="60.05" y1="401.27" x2="368.63" y2="92.7"/>
      <line class="cls-2" x1="65.47" y1="406.69" x2="374.04" y2="98.12"/>
      <line class="cls-2" x1="69.26" y1="413.82" x2="377.83" y2="105.25"/>
      <line class="cls-2" x1="73.4" y1="420.09" x2="381.97" y2="111.52"/>
      <line class="cls-2" x1="77.19" y1="427.23" x2="385.76" y2="118.66"/>
      <line class="cls-2" x1="82.61" y1="432.64" x2="391.18" y2="124.07"/>
      <line class="cls-2" x1="86.4" y1="439.78" x2="394.97" y2="131.21"/>
      <line class="cls-2" x1="90" y1="446.72" x2="398.57" y2="138.15"/>
      <line class="cls-2" x1="93.79" y1="453.86" x2="402.36" y2="145.29"/>
      <line class="cls-2" x1="99.21" y1="459.27" x2="407.78" y2="150.7"/>
      <line class="cls-2" x1="103" y1="466.41" x2="411.57" y2="157.84"/>
      <line class="cls-2" x1="108.92" y1="471.55" x2="417.49" y2="162.98"/>
      <line class="cls-2" x1="112.71" y1="478.68" x2="421.28" y2="170.11"/>
      <line class="cls-2" x1="118.12" y1="484.1" x2="426.69" y2="175.53"/>
      <line class="cls-2" x1="121.91" y1="491.23" x2="430.49" y2="182.66"/>
      <line class="cls-2" x1="125.52" y1="498.18" x2="434.09" y2="189.61"/>
      <line class="cls-2" x1="129.31" y1="505.31" x2="437.88" y2="196.74"/>
      <line class="cls-2" x1="134.73" y1="510.73" x2="443.3" y2="202.16"/>
      <line class="cls-2" x1="138.52" y1="517.86" x2="447.09" y2="209.29"/>
      <line class="cls-2" x1="142.37" y1="525.41" x2="450.94" y2="216.84"/>
      <line class="cls-2" x1="146.16" y1="532.54" x2="454.73" y2="223.97"/>
      <line class="cls-2" x1="151.57" y1="537.96" x2="460.14" y2="229.39"/>
      <line class="cls-2" x1="155.36" y1="545.09" x2="463.93" y2="236.52"/>
      <line class="cls-2" x1="158.97" y1="552.04" x2="467.54" y2="243.47"/>
      <line class="cls-2" x1="162.76" y1="559.17" x2="471.33" y2="250.6"/>
      <line class="cls-2" x1="168.18" y1="564.59" x2="476.75" y2="256.02"/>
      <line class="cls-2" x1="171.97" y1="571.72" x2="480.54" y2="263.15"/>
      <line class="cls-2" x1="177.88" y1="576.86" x2="486.45" y2="268.29"/>
      <line class="cls-2" x1="181.67" y1="584" x2="490.24" y2="275.42"/>
      <line class="cls-2" x1="187.09" y1="589.41" x2="495.66" y2="280.84"/>
      <line class="cls-2" x1="190.88" y1="596.55" x2="499.45" y2="287.97"/>
      <line class="cls-2" x1="194.49" y1="603.49" x2="503.06" y2="294.92"/>
      <line class="cls-2" x1="198.28" y1="610.63" x2="506.85" y2="302.06"/>
      <line class="cls-2" x1="203.69" y1="616.04" x2="512.26" y2="307.47"/>
      <line class="cls-2" x1="207.48" y1="623.18" x2="516.05" y2="314.61"/>
      <line class="cls-2" x1="211.62" y1="629.44" x2="520.19" y2="320.87"/>
      <line class="cls-2" x1="215.41" y1="636.58" x2="523.98" y2="328.01"/>
      <line class="cls-2" x1="220.83" y1="641.99" x2="529.4" y2="333.42"/>
      <line class="cls-2" x1="224.62" y1="649.13" x2="533.19" y2="340.56"/>
      <line class="cls-2" x1="228.23" y1="656.08" x2="536.8" y2="347.5"/>
      <line class="cls-2" x1="232.02" y1="663.21" x2="540.59" y2="354.64"/>
      <line class="cls-2" x1="237.43" y1="668.63" x2="546" y2="360.05"/>
      <line class="cls-2" x1="241.22" y1="675.76" x2="549.79" y2="367.19"/>
      <line class="cls-2" x1="247.14" y1="680.9" x2="555.71" y2="372.33"/>
      <line class="cls-2" x1="250.93" y1="688.03" x2="559.5" y2="379.46"/>
      <line class="cls-2" x1="256.35" y1="693.45" x2="564.92" y2="384.88"/>
      <line class="cls-2" x1="260.14" y1="700.58" x2="568.71" y2="392.01"/>
      <line class="cls-2" x1="263.74" y1="707.53" x2="572.31" y2="398.96"/>
      <line class="cls-2" x1="267.53" y1="714.66" x2="576.1" y2="406.09"/>
      <line class="cls-2" x1="272.95" y1="720.08" x2="581.52" y2="411.51"/>
      <line class="cls-2" x1="276.74" y1="727.21" x2="585.31" y2="418.64"/>
    </g>
  </g>
</svg>